<?xml version="1.0" encoding="UTF-8"?>
<svg id="ADIF" xmlns="http://www.w3.org/2000/svg" version="1.1" viewBox="0 0 221 221">
  <defs>
    <style>
      .cls-1 {
        fill: #102341;
        stroke-width: 0px;
      }
    </style>
  </defs>
  <path class="cls-1" d="M110.6,28.1c2.4,1.7,31.9,25.7,75.1,79.7,5.7,7.2,11.4,16,11.7,21.2.7,8.9-8.4,16.3-24.2,22.1-10.5,3.7-52.1,19.3-81.2,29.8,8.1-10.9,16.3-23.2,24-36.7,26.8-47.4,29.6-61.5,25.8-72.4-3.5-10.2-11-9.9-13.5-9.4,2.2-.4,9.9.7,11.4,11.1,1.9,13-5.9,24.6-44.5,74.4-12.6,16.2-25.4,31.1-37.4,43.7-12.6,1.6-38.5,1-23.8-39.5,1-2.6,2-5.4,3-8.1,15.6-10.2,43.9-30.2,68.1-50.7,35.9-30.4,19.6-31.2,19.6-31.2,0,0,14.2,2.7-24.5,29.3-19.1,13.2-39.7,24.7-55.6,33.1,16.8-41.9,37.7-85.5,40.9-90.8,5.9-9.2,14.7-13.2,25.2-5.6"/>
</svg>